<svg width="26" height="26" viewBox="0 0 26 26" fill="none" xmlns="http://www.w3.org/2000/svg">
<g clip-path="url(#clip0_101_4128)">
<path d="M0.0146484 8.61294C0.0146484 5.56636 0.0146484 4.04307 0.616947 2.8836C1.1245 1.90652 1.92117 1.10985 2.89825 0.602299C4.05772 0 5.58101 0 8.62759 0H17.08C20.1266 0 21.6499 0 22.8094 0.602299C23.7864 1.10985 24.5831 1.90652 25.0907 2.8836C25.693 4.04307 25.693 5.56636 25.693 8.61294V17.0654C25.693 20.112 25.693 21.6353 25.0907 22.7947C24.5831 23.7718 23.7864 24.5685 22.8094 25.076C21.6499 25.6783 20.1266 25.6783 17.08 25.6783H8.62759C5.58101 25.6783 4.05772 25.6783 2.89825 25.076C1.92117 24.5685 1.1245 23.7718 0.616947 22.7947C0.0146484 21.6353 0.0146484 20.112 0.0146484 17.0654V8.61294Z" fill="url(#paint0_radial_101_4128)"/>
<path d="M0.0146484 8.61294C0.0146484 5.56636 0.0146484 4.04307 0.616947 2.8836C1.1245 1.90652 1.92117 1.10985 2.89825 0.602299C4.05772 0 5.58101 0 8.62759 0H17.08C20.1266 0 21.6499 0 22.8094 0.602299C23.7864 1.10985 24.5831 1.90652 25.0907 2.8836C25.693 4.04307 25.693 5.56636 25.693 8.61294V17.0654C25.693 20.112 25.693 21.6353 25.0907 22.7947C24.5831 23.7718 23.7864 24.5685 22.8094 25.076C21.6499 25.6783 20.1266 25.6783 17.08 25.6783H8.62759C5.58101 25.6783 4.05772 25.6783 2.89825 25.076C1.92117 24.5685 1.1245 23.7718 0.616947 22.7947C0.0146484 21.6353 0.0146484 20.112 0.0146484 17.0654V8.61294Z" fill="url(#paint1_radial_101_4128)"/>
<path d="M12.8396 3.50159C10.3037 3.50159 9.98546 3.51268 8.98949 3.558C7.99545 3.60352 7.31695 3.7609 6.72325 3.99181C6.10913 4.23031 5.58818 4.54934 5.06919 5.06855C4.5498 5.58756 4.23078 6.10852 3.99151 6.72247C3.76002 7.31637 3.60245 7.9951 3.55771 8.98877C3.51317 9.98478 3.5015 10.3032 3.5015 12.8392C3.5015 15.3751 3.51278 15.6924 3.55791 16.6884C3.60362 17.6824 3.76099 18.361 3.9917 18.9547C4.23039 19.5688 4.54941 20.0898 5.0686 20.6088C5.58741 21.1282 6.10835 21.448 6.72208 21.6865C7.31617 21.9174 7.99487 22.0748 8.98871 22.1203C9.98469 22.1656 10.3027 22.1767 12.8384 22.1767C15.3744 22.1767 15.6917 22.1656 16.6877 22.1203C17.6817 22.0748 18.361 21.9174 18.9551 21.6865C19.569 21.448 20.0892 21.1282 20.608 20.6088C21.1274 20.0898 21.4464 19.5688 21.6857 18.9549C21.9152 18.361 22.0728 17.6822 22.1195 16.6886C22.1642 15.6926 22.1759 15.3751 22.1759 12.8392C22.1759 10.3032 22.1642 9.98497 22.1195 8.98897C22.0728 7.9949 21.9152 7.31637 21.6857 6.72266C21.4464 6.10852 21.1274 5.58756 20.608 5.06855C20.0886 4.54915 19.5692 4.23011 18.9545 3.99181C18.3593 3.7609 17.6804 3.60352 16.6863 3.558C15.6904 3.51268 15.3733 3.50159 12.8366 3.50159H12.8396ZM12.0019 5.1843C12.2505 5.18391 12.5279 5.1843 12.8396 5.1843C15.3326 5.1843 15.6281 5.19324 16.6126 5.23799C17.523 5.27962 18.0171 5.43174 18.3462 5.55955C18.782 5.72879 19.0926 5.93111 19.4192 6.25792C19.746 6.58474 19.9484 6.89599 20.118 7.33174C20.2458 7.6605 20.3981 8.15462 20.4395 9.06503C20.4843 10.0494 20.494 10.3451 20.494 12.837C20.494 15.329 20.4843 15.6247 20.4395 16.609C20.3979 17.5194 20.2458 18.0135 20.118 18.3423C19.9487 18.778 19.746 19.0883 19.4192 19.4149C19.0924 19.7418 18.7822 19.9441 18.3462 20.1133C18.0175 20.2417 17.523 20.3934 16.6126 20.4351C15.6283 20.4798 15.3326 20.4895 12.8396 20.4895C10.3463 20.4895 10.0508 20.4798 9.06652 20.4351C8.15613 20.3931 7.66204 20.2409 7.3327 20.1131C6.89696 19.9439 6.58572 19.7416 6.25891 19.4148C5.93211 19.0879 5.7298 18.7775 5.56017 18.3415C5.43237 18.0128 5.28005 17.5186 5.23862 16.6082C5.19388 15.6239 5.18493 15.3282 5.18493 12.8347C5.18493 10.3412 5.19388 10.047 5.23862 9.06269C5.28025 8.15228 5.43237 7.65817 5.56017 7.32902C5.72941 6.89327 5.93211 6.58201 6.25891 6.2552C6.58572 5.92838 6.89696 5.72607 7.3327 5.55644C7.66184 5.42804 8.15613 5.27631 9.06652 5.23448C9.92788 5.19558 10.2617 5.18391 12.0019 5.18196V5.1843ZM17.8237 6.73472C17.2051 6.73472 16.7033 7.23603 16.7033 7.85484C16.7033 8.47345 17.2051 8.97535 17.8237 8.97535C18.4423 8.97535 18.9442 8.47345 18.9442 7.85484C18.9442 7.23623 18.4423 6.73433 17.8237 6.73433V6.73472ZM12.8396 8.04393C10.1915 8.04393 8.04448 10.191 8.04448 12.8392C8.04448 15.4873 10.1915 17.6334 12.8396 17.6334C15.4877 17.6334 17.6339 15.4873 17.6339 12.8392C17.6339 10.191 15.4875 8.04393 12.8394 8.04393H12.8396ZM12.8396 9.72663C14.5584 9.72663 15.952 11.1201 15.952 12.8392C15.952 14.558 14.5584 15.9517 12.8396 15.9517C11.1205 15.9517 9.72713 14.558 9.72713 12.8392C9.72713 11.1201 11.1205 9.72663 12.8396 9.72663Z" fill="white"/>
</g>
<defs>
<radialGradient id="paint0_radial_101_4128" cx="0" cy="0" r="1" gradientUnits="userSpaceOnUse" gradientTransform="translate(6.83549 27.6561) rotate(-90) scale(25.4491 23.6697)">
<stop stop-color="#FFDD55"/>
<stop offset="0.1" stop-color="#FFDD55"/>
<stop offset="0.5" stop-color="#FF543E"/>
<stop offset="1" stop-color="#C837AB"/>
</radialGradient>
<radialGradient id="paint1_radial_101_4128" cx="0" cy="0" r="1" gradientUnits="userSpaceOnUse" gradientTransform="translate(-4.28661 1.84982) rotate(78.6806) scale(11.3759 46.8918)">
<stop stop-color="#3771C8"/>
<stop offset="0.128" stop-color="#3771C8"/>
<stop offset="1" stop-color="#6600FF" stop-opacity="0"/>
</radialGradient>
<clipPath id="clip0_101_4128">
<rect width="25.6783" height="25.6783" fill="white"/>
</clipPath>
</defs>
</svg>
