<svg width="26" height="26" viewBox="0 0 26 26" fill="none" xmlns="http://www.w3.org/2000/svg">
<path d="M0.322266 8.61294C0.322266 5.56636 0.322266 4.04307 0.924564 2.8836C1.43212 1.90652 2.22879 1.10985 3.20586 0.602299C4.36534 0 5.88863 0 8.9352 0H17.3876C20.4342 0 21.9575 0 23.117 0.602299C24.0941 1.10985 24.8907 1.90652 25.3983 2.8836C26.0006 4.04307 26.0006 5.56636 26.0006 8.61294V17.0654C26.0006 20.112 26.0006 21.6353 25.3983 22.7947C24.8907 23.7718 24.0941 24.5685 23.117 25.076C21.9575 25.6783 20.4342 25.6783 17.3876 25.6783H8.9352C5.88863 25.6783 4.36534 25.6783 3.20586 25.076C2.22879 24.5685 1.43212 23.7718 0.924564 22.7947C0.322266 21.6353 0.322266 20.112 0.322266 17.0654V8.61294Z" fill="#1265BF"/>
<path d="M6.08587 7.97446C7.31613 7.97446 8.31345 6.97714 8.31345 5.74688C8.31345 4.51661 7.31613 3.51929 6.08587 3.51929C4.8556 3.51929 3.85828 4.51661 3.85828 5.74688C3.85828 6.97714 4.8556 7.97446 6.08587 7.97446Z" fill="white"/>
<path d="M10.3535 9.62072H14.0454V11.312C14.0454 11.312 15.0472 9.30831 17.773 9.30831C20.2046 9.30831 22.2189 10.5062 22.2189 14.1573V21.8565H18.3931V15.0902C18.3931 12.9364 17.2432 12.6995 16.367 12.6995C14.5486 12.6995 14.2372 14.268 14.2372 15.3712V21.8565H10.3535V9.62072Z" fill="white"/>
<path d="M4.14402 9.62072H8.02772V21.8565H4.14402V9.62072Z" fill="white"/>
</svg>
