<svg width="27" height="26" viewBox="0 0 27 26" fill="none" xmlns="http://www.w3.org/2000/svg">
<path d="M0.660156 8.61294C0.660156 5.56636 0.660156 4.04307 1.26245 2.8836C1.77001 1.90652 2.56668 1.10985 3.54375 0.602299C4.70323 0 6.22652 0 9.27309 0H17.7255C20.7721 0 22.2954 0 23.4549 0.602299C24.432 1.10985 25.2286 1.90652 25.7362 2.8836C26.3385 4.04307 26.3385 5.56636 26.3385 8.61294V17.0654C26.3385 20.112 26.3385 21.6353 25.7362 22.7947C25.2286 23.7718 24.432 24.5685 23.4549 25.076C22.2954 25.6783 20.7721 25.6783 17.7255 25.6783H9.27309C6.22652 25.6783 4.70323 25.6783 3.54375 25.076C2.56668 24.5685 1.77001 23.7718 1.26245 22.7947C0.660156 21.6353 0.660156 20.112 0.660156 17.0654V8.61294Z" fill="#1EA1F2"/>
<path fill-rule="evenodd" clip-rule="evenodd" d="M20.6266 9.71082C20.6329 9.87121 20.6349 10.0315 20.6349 10.1919C20.6349 15.0545 17.2144 20.668 10.9593 20.668C9.03787 20.668 7.25121 20.0556 5.74585 19.0131C6.01195 19.0423 6.2822 19.0642 6.55659 19.0642C8.14972 19.0642 9.61707 18.4736 10.781 17.4821C9.29291 17.4602 8.03638 16.3886 7.60302 14.9305C7.81106 14.9743 8.02531 14.9962 8.2444 14.9962C8.55336 14.9962 8.85332 14.9525 9.14084 14.865C7.58365 14.5297 6.41075 13.0425 6.41075 11.2564C6.41075 11.2346 6.41075 11.2272 6.41075 11.2126C6.86969 11.4824 7.39496 11.65 7.95274 11.6718C7.03901 11.0084 6.43839 9.87848 6.43839 8.6027C6.43839 7.932 6.60565 7.29773 6.90008 6.75096C8.57685 8.98176 11.0837 10.4471 13.9099 10.6002C13.8518 10.3305 13.8221 10.0462 13.8221 9.7619C13.8221 7.72794 15.3447 6.08032 17.2233 6.08032C18.2013 6.08032 19.0846 6.52509 19.7046 7.23953C20.4808 7.07914 21.2079 6.77298 21.8659 6.35014C21.6109 7.21039 21.0724 7.93197 20.3688 8.38396C21.0572 8.29648 21.7138 8.09979 22.3228 7.80818C21.8659 8.54449 21.2908 9.19322 20.6266 9.71082Z" fill="white"/>
</svg>
